<?xml version="1.0" encoding="UTF-8" standalone="no"?>
<svg width="90px" height="90px" viewBox="0 0 90 90" version="1.1" xmlns="http://www.w3.org/2000/svg" xmlns:xlink="http://www.w3.org/1999/xlink" xmlns:sketch="http://www.bohemiancoding.com/sketch/ns">
    <!-- Generator: Sketch 3.4.4 (17249) - http://www.bohemiancoding.com/sketch -->
    <title>Group</title>
    <desc>Created with Sketch.</desc>
    <defs></defs>
    <g id="Page-1" stroke="none" stroke-width="1" fill="none" fill-rule="evenodd" sketch:type="MSPage">
        <g id="Desktop-Copy-8" sketch:type="MSArtboardGroup" transform="translate(-467.000000, -224.000000)" fill="#000000">
            <g id="Group" sketch:type="MSLayerGroup" transform="translate(467.000000, 224.000000)">
                <path d="M82.367,45.857 C82.018,45.857 81.736,45.574 81.736,45.225 L81.736,44.774 C81.736,44.425 82.019,44.142 82.367,44.142 L88.829,44.142 C89.178,44.142 89.46,44.425 89.46,44.773 L89.46,45.224 C89.46,45.573 89.177,45.856 88.828,45.856 L82.367,45.856 L82.367,45.857 Z" id="Shape" sketch:type="MSShapeGroup"></path>
                <path d="M44.143,82.367 C44.144,82.018 44.427,81.736 44.775,81.736 L45.226,81.736 C45.575,81.736 45.858,82.019 45.858,82.367 L45.858,88.83 C45.858,89.179 45.575,89.461 45.227,89.461 L44.776,89.461 C44.427,89.461 44.144,89.178 44.144,88.829 L44.144,82.367 L44.143,82.367 Z" id="Shape" sketch:type="MSShapeGroup"></path>
                <path d="M45.857,7.633 C45.857,7.982 45.574,8.264 45.225,8.264 L44.774,8.264 C44.425,8.264 44.142,7.981 44.142,7.633 L44.142,1.171 C44.142,0.822 44.425,0.539 44.774,0.539 L45.225,0.539 C45.574,0.539 45.857,0.822 45.857,1.171 L45.857,7.633 L45.857,7.633 Z" id="Shape" sketch:type="MSShapeGroup"></path>
                <g transform="translate(6.000000, 6.000000)" id="Shape" sketch:type="MSShapeGroup">
                    <g transform="translate(16.000000, 0.000000)">
                        <path d="M3.886,4.521 C4.06,4.823 3.957,5.209 3.655,5.384 L3.56,5.438 C3.258,5.613 2.872,5.509 2.697,5.207 L0.49,1.386 C0.316,1.083 0.419,0.697 0.721,0.523 L0.816,0.469 C1.118,0.295 1.504,0.398 1.679,0.7 L3.886,4.521 L3.886,4.521 Z"></path>
                        <path d="M45.509,76.614 C45.683,76.916 45.58,77.302 45.278,77.477 L45.183,77.531 C44.881,77.705 44.495,77.602 44.32,77.3 L42.113,73.479 C41.939,73.176 42.042,72.791 42.344,72.616 L42.439,72.561 C42.741,72.387 43.127,72.49 43.302,72.792 L45.509,76.614 L45.509,76.614 Z"></path>
                    </g>
                    <g transform="translate(0.000000, 16.000000)">
                        <path d="M73.479,3.886 C73.177,4.06 72.791,3.957 72.616,3.655 L72.561,3.56 C72.387,3.258 72.49,2.872 72.792,2.697 L76.614,0.49 C76.916,0.316 77.302,0.419 77.477,0.721 L77.532,0.816 C77.706,1.118 77.603,1.504 77.301,1.679 L73.479,3.886 L73.479,3.886 Z"></path>
                        <path d="M1.386,45.509 C1.084,45.683 0.698,45.58 0.523,45.278 L0.468,45.183 C0.294,44.881 0.397,44.495 0.699,44.32 L4.52,42.114 C4.823,41.939 5.208,42.043 5.383,42.345 L5.438,42.44 C5.612,42.742 5.509,43.128 5.207,43.303 L1.386,45.509 L1.386,45.509 Z"></path>
                    </g>
                </g>
                <g transform="translate(6.000000, 6.000000)" id="Shape" sketch:type="MSShapeGroup">
                    <g transform="translate(0.000000, 16.000000)">
                        <path d="M5.207,2.697 C5.509,2.871 5.613,3.258 5.438,3.56 L5.383,3.654 C5.209,3.956 4.823,4.06 4.52,3.885 L0.699,1.679 C0.396,1.504 0.293,1.118 0.468,0.816 L0.523,0.722 C0.697,0.42 1.083,0.316 1.386,0.491 L5.207,2.697 L5.207,2.697 Z"></path>
                        <path d="M77.3,44.32 C77.602,44.494 77.705,44.881 77.531,45.183 L77.476,45.277 C77.302,45.579 76.915,45.683 76.613,45.508 L72.792,43.302 C72.489,43.128 72.386,42.741 72.561,42.439 L72.615,42.345 C72.789,42.043 73.176,41.939 73.478,42.114 L77.3,44.32 L77.3,44.32 Z"></path>
                    </g>
                    <g transform="translate(16.000000, 0.000000)">
                        <path d="M43.303,5.207 C43.129,5.509 42.742,5.613 42.44,5.438 L42.345,5.384 C42.043,5.209 41.939,4.823 42.114,4.521 L44.32,0.7 C44.494,0.398 44.881,0.294 45.183,0.468 L45.278,0.523 C45.58,0.697 45.684,1.084 45.509,1.386 L43.303,5.207 L43.303,5.207 Z"></path>
                        <path d="M1.68,77.301 C1.506,77.603 1.119,77.706 0.817,77.532 L0.722,77.477 C0.42,77.303 0.316,76.917 0.491,76.614 L2.698,72.793 C2.872,72.49 3.259,72.388 3.561,72.562 L3.656,72.617 C3.958,72.791 4.062,73.177 3.887,73.48 L1.68,77.301 L1.68,77.301 Z"></path>
                    </g>
                </g>
                <path d="M7.633,44.143 C7.982,44.144 8.264,44.427 8.264,44.775 L8.264,45.226 C8.264,45.575 7.981,45.858 7.633,45.858 L1.17,45.858 C0.821,45.858 0.539,45.575 0.539,45.227 L0.539,44.776 C0.539,44.427 0.821,44.144 1.171,44.144 L7.633,44.144 L7.633,44.143 Z" id="Shape" sketch:type="MSShapeGroup"></path>
                <path d="M69.897,20.762 L69.226,20.091 C69.125,19.991 68.962,19.99 68.862,20.091 L46.459,42.493 L47.494,43.528 L69.896,21.126 C69.997,21.025 69.997,20.862 69.897,20.762 L69.897,20.762 Z" id="Shape" sketch:type="MSShapeGroup"></path>
                <path d="M42.493,46.459 L39.449,49.503 C39.349,49.603 39.348,49.767 39.449,49.867 L40.12,50.538 C40.22,50.638 40.384,50.638 40.484,50.538 L43.528,47.494 L42.493,46.459 L42.493,46.459 Z" id="Shape" sketch:type="MSShapeGroup"></path>
                <path d="M50.539,49.516 L47.495,46.472 L46.459,47.508 L49.503,50.552 C49.604,50.653 49.767,50.652 49.867,50.552 L50.538,49.881 C50.639,49.78 50.639,49.617 50.539,49.516 L50.539,49.516 Z" id="Shape" sketch:type="MSShapeGroup"></path>
                <path d="M43.528,42.505 L25.956,24.934 C25.856,24.834 25.692,24.834 25.592,24.934 L24.921,25.605 C24.821,25.705 24.82,25.868 24.921,25.969 L42.493,43.54 L43.528,42.505 L43.528,42.505 Z" id="Shape" sketch:type="MSShapeGroup"></path>
                <path d="M45.92,45.25 L45.25,45.92 C45.112,46.058 44.888,46.058 44.749,45.92 L44.079,45.25 C43.941,45.112 43.941,44.888 44.079,44.75 L44.749,44.08 C44.887,43.942 45.111,43.942 45.25,44.08 L45.92,44.75 C46.058,44.888 46.058,45.112 45.92,45.25 L45.92,45.25 Z" id="Shape" sketch:type="MSShapeGroup"></path>
            </g>
        </g>
    </g>
</svg>