<?xml version="1.0" encoding="UTF-8" standalone="no"?>
<svg width="27px" height="42px" viewBox="0 0 27 42" version="1.1" xmlns="http://www.w3.org/2000/svg" xmlns:xlink="http://www.w3.org/1999/xlink" xmlns:sketch="http://www.bohemiancoding.com/sketch/ns">
    <!-- Generator: Sketch 3.4.4 (17249) - http://www.bohemiancoding.com/sketch -->
    <title>Shape</title>
    <desc>Created with Sketch.</desc>
    <defs></defs>
    <g id="Page-1" stroke="none" stroke-width="1" fill="none" fill-rule="evenodd" sketch:type="MSPage">
        <g id="Desktop" sketch:type="MSArtboardGroup" transform="translate(-892.000000, -455.000000)" fill="#414141">
            <g id="(or-you-won’t-be-abl-+-google116-+-noun_46489_cc-+-log-in" sketch:type="MSLayerGroup" transform="translate(590.000000, 455.000000)">
                <g id="google116-+-noun_46489_cc-+-log-in" transform="translate(69.000000, 0.000000)" sketch:type="MSShapeGroup">
                    <g id="google116" transform="translate(233.000000, 0.000000)">
                        <g id="Capa_1">
                            <g id="Group">
                                <path d="M26.5926,0 L16.6265789,0 C12.1856316,0 9.11149474,0.976824742 6.34464211,3.26993814 C4.16862105,5.1534433 2.87,7.89080412 2.87,10.5926598 C2.87,14.7554227 6.03347368,19.1792784 11.8956105,19.1792784 C12.4592526,19.1792784 13.0833158,19.1212577 13.6340105,19.069732 L13.5528737,19.2676082 C13.3172316,19.8339588 13.0941053,20.368268 13.0941053,21.2022062 C13.0941053,22.8259175 13.8748316,23.8274227 14.6296632,24.7951546 L14.7246105,24.9176907 L14.5558632,24.9293814 C12.1351368,25.0956495 7.62945263,25.4056701 4.33823158,27.4350928 C0.451,29.7537526 0.148894737,33.1267423 0.148894737,34.104866 C0.148894737,37.9965773 3.7638,41.9246598 11.8403684,41.9246598 C21.2315263,41.9246598 26.1454842,36.7266186 26.1454842,31.5922268 C26.1463474,27.7944742 23.9267368,25.9196289 21.5707474,23.9291753 L19.5833263,22.3782062 C18.9691895,21.8677113 18.2044316,21.2325155 18.2044316,20.0556495 C18.2044316,18.898701 18.9691895,18.1349072 19.6441789,17.4611753 L19.7145263,17.389732 C21.8607684,15.6937113 24.2931474,13.7708041 24.2931474,9.61150515 C24.2931474,5.42969072 21.6885684,3.26863918 20.4361263,2.22989691 L23.7433158,2.22989691 C23.7838842,2.22989691 23.8244526,2.21863918 23.8581158,2.1965567 L26.7069684,0.399649485 C26.7881053,0.348123711 26.8260842,0.248969072 26.7993263,0.156309278 C26.7738632,0.0636494845 26.6884105,0 26.5926,0 L26.5926,0 Z M14.5070947,39.6337113 C8.78263158,39.6337113 4.9364,36.9513402 4.9364,32.9587423 C4.9364,30.3517113 6.50950526,28.4573814 9.60781053,27.3311753 C12.0889579,26.4933402 15.2917053,26.4517732 15.3236421,26.4517732 C15.8661368,26.4517732 16.1388947,26.4517732 16.5722,26.5063299 C20.5776842,29.3662268 22.5033895,30.8678351 22.5033895,33.727732 C22.5029579,37.3709072 19.4387474,39.6337113 14.5070947,39.6337113 L14.5070947,39.6337113 Z M14.4531474,17.6469278 C9.64881053,17.6469278 7.65491579,11.3109897 7.65491579,7.91851546 C7.65491579,6.19348454 8.04592632,4.86940206 8.85038947,3.86962887 C9.72347368,2.77373196 11.2184632,2.06579381 12.6590737,2.06579381 C17.0702421,2.06579381 19.5095263,8.01420619 19.5095263,12.1254433 C19.5095263,12.7740619 19.5095263,14.7471959 18.1509158,16.1176082 C17.2372632,17.0325155 15.7513368,17.6469278 14.4531474,17.6469278 L14.4531474,17.6469278 Z" id="Shape"></path>
                            </g>
                        </g>
                    </g>
                </g>
            </g>
        </g>
    </g>
</svg>