<?xml version="1.0" encoding="UTF-8" standalone="no"?>
<svg width="109px" height="88px" viewBox="0 0 109 88" version="1.1" xmlns="http://www.w3.org/2000/svg" xmlns:xlink="http://www.w3.org/1999/xlink" xmlns:sketch="http://www.bohemiancoding.com/sketch/ns">
    <!-- Generator: Sketch 3.4.4 (17249) - http://www.bohemiancoding.com/sketch -->
    <title>Shape</title>
    <desc>Created with Sketch.</desc>
    <defs></defs>
    <g id="Page-1" stroke="none" stroke-width="1" fill="none" fill-rule="evenodd" sketch:type="MSPage">
        <g id="Desktop-Copy-7" sketch:type="MSArtboardGroup" transform="translate(-588.000000, -336.000000)" fill="#A3CA78">
            <g id="Rectangle-22-Copy-+-Wants-To-Fight-+-Jackson-Pollock-+-Shape-+-Shape" sketch:type="MSLayerGroup" transform="translate(208.000000, 161.000000)">
                <g id="Shape-+-Shape" transform="translate(123.000000, 166.000000)" sketch:type="MSShapeGroup">
                    <path d="M364.829958,21.2625219 L353.71539,10.1479536 C352.179489,8.61659286 349.697981,8.61659286 348.162079,10.1524943 L293.97416,64.335873 L274.816826,45.1819447 C273.280924,43.6460433 270.799416,43.6460433 269.263515,45.1785392 L258.148947,56.2931075 C256.616451,57.829009 256.616451,60.3139227 258.152352,61.8509593 L289.780797,93.4782688 C290.917114,94.6157214 292.389445,96.109621 293.893562,96.109621 C295.397678,96.109621 297.03007,94.6157214 298.166387,93.4782688 L364.826553,26.8192385 C366.362454,25.2844722 366.362454,22.7972881 364.829958,21.2625219 L364.829958,21.2625219 Z" id="Shape"></path>
                </g>
            </g>
        </g>
    </g>
</svg>